<?xml version="1.0" encoding="utf-8"?>
<!-- Generator: Adobe Illustrator 16.0.0, SVG Export Plug-In . SVG Version: 6.00 Build 0)  -->
<!DOCTYPE svg PUBLIC "-//W3C//DTD SVG 1.1//EN" "http://www.w3.org/Graphics/SVG/1.1/DTD/svg11.dtd">
<svg version="1.1" id="Layer_1" xmlns="http://www.w3.org/2000/svg" xmlns:xlink="http://www.w3.org/1999/xlink" x="0px" y="0px"
	 width="512px" height="512px" viewBox="0 0 512 512" enable-background="new 0 0 512 512" xml:space="preserve">
<path fill="#FFFFFF" d="M476.001,204.95h-19.738c-16.102,0-29.605-13.895-29.605-30.385c0-8.311,3.504-15.843,9.738-21.427
	l12.726-12.465c12.596-12.466,12.596-32.852,0-45.318l-28.957-28.698c-5.715-5.713-14.154-9.089-22.724-9.089
	c-8.571,0-16.882,3.376-22.724,9.089l-12.208,12.207c-5.842,6.492-13.635,9.999-22.073,9.999c-16.621,0-30.516-13.504-30.516-29.477
	V39.519c0-17.53-14.154-32.593-31.813-32.593h-39.475c-17.661,0-31.684,14.933-31.684,32.593v19.737
	c0,15.973-13.895,29.477-30.516,29.477c-8.312,0-15.972-3.506-21.555-9.608l-12.596-12.466c-5.714-5.843-14.154-9.089-22.724-9.089
	c-8.571,0-16.881,3.376-22.724,9.089L67.616,95.226c-12.466,12.466-12.466,32.852,0,45.188l12.206,12.207
	c6.492,5.843,10.129,13.634,10.129,21.945c0,16.62-13.505,30.385-29.607,30.385H40.608c-17.79,0-32.723,13.894-32.723,31.554v19.739
	v19.736c0,17.531,14.933,31.555,32.723,31.555h19.736c16.102,0,29.607,13.895,29.607,30.385c0,8.311-3.637,16.102-10.129,21.945
	l-12.206,12.076c-12.466,12.467-12.466,32.853,0,45.188l28.957,28.827c5.714,5.844,14.154,9.09,22.724,9.09
	c8.57,0,16.88-3.376,22.724-9.09l12.596-12.466c5.454-6.104,13.245-9.609,21.555-9.609c16.621,0,30.516,13.505,30.516,29.477v19.738
	c0,17.529,14.024,32.592,31.813,32.592h39.476c17.659,0,31.683-14.934,31.683-32.592v-19.738c0-15.972,13.895-29.477,30.516-29.477
	c8.312,0,16.103,3.637,22.075,9.999l12.206,12.206c5.844,5.714,14.152,9.09,22.725,9.09c8.569,0,16.881-3.376,22.725-9.09
	l28.956-28.827c12.465-12.466,12.465-32.852,0-45.318l-12.726-12.466c-6.232-5.583-9.739-13.245-9.739-21.426
	c0-16.62,13.505-30.386,29.607-30.386h19.736c17.66,0,30.256-13.894,30.256-31.553v-19.867v-19.739
	C506.256,218.844,493.659,204.95,476.001,204.95z M336.8,256L336.8,256c0,44.1-35.7,80-80,80s-80-35.9-80-80l0,0l0,0
	c0-44.1,35.7-80,80-80S336.8,211.9,336.8,256L336.8,256z"/>
</svg>
